<svg xmlns="http://www.w3.org/2000/svg" viewBox="0 0 320 400" shape-rendering="crispEdges" style="image-rendering:pixelated">
  <!-- Dark sky -->
  <rect width="320" height="400" fill="#1a1a2e"/>
  <!-- Stars -->
  <rect x="20" y="15" width="2" height="2" fill="#fff" opacity="0.7"/>
  <rect x="50" y="8" width="2" height="2" fill="#fff" opacity="0.5"/>
  <rect x="80" y="22" width="2" height="2" fill="#fff" opacity="0.8"/>
  <rect x="120" y="10" width="2" height="2" fill="#fff" opacity="0.6"/>
  <rect x="160" y="5" width="2" height="2" fill="#fff" opacity="0.7"/>
  <rect x="200" y="18" width="2" height="2" fill="#fff" opacity="0.5"/>
  <rect x="240" y="6" width="2" height="2" fill="#fff" opacity="0.8"/>
  <rect x="280" y="20" width="2" height="2" fill="#fff" opacity="0.6"/>
  <rect x="300" y="10" width="2" height="2" fill="#fff" opacity="0.4"/>
  <rect x="35" y="40" width="2" height="2" fill="#fff" opacity="0.5"/>
  <rect x="100" y="35" width="2" height="2" fill="#fff" opacity="0.6"/>
  <rect x="260" y="32" width="2" height="2" fill="#fff" opacity="0.7"/>

  <!-- Moon -->
  <rect x="260" y="25" width="28" height="28" fill="#d4c98a" opacity="0.9"/>
  <rect x="264" y="21" width="20" height="8" fill="#d4c98a" opacity="0.9"/>
  <rect x="264" y="53" width="20" height="8" fill="#d4c98a" opacity="0.9"/>
  <rect x="252" y="29" width="8" height="20" fill="#d4c98a" opacity="0.9"/>
  <rect x="288" y="29" width="8" height="20" fill="#d4c98a" opacity="0.9"/>
  <!-- Moon shadow -->
  <rect x="272" y="25" width="16" height="28" fill="#1a1a2e" opacity="0.6"/>

  <!-- Ground mist -->
  <rect x="0" y="355" width="320" height="45" fill="#1e2a3a" opacity="0.8"/>
  <rect x="0" y="365" width="320" height="35" fill="#16222e"/>
  <rect x="0" y="375" width="320" height="25" fill="#121c28"/>

  <!-- Columbarium structure — outer walls -->
  <rect x="30" y="85" width="260" height="280" fill="#2c2c3c"/>
  <rect x="30" y="85" width="260" height="8" fill="#3a3a50"/>
  <!-- Stone texture columns -->
  <rect x="30" y="85" width="8" height="280" fill="#252535"/>
  <rect x="282" y="85" width="8" height="280" fill="#252535"/>

  <!-- Arch top -->
  <rect x="50" y="68" width="220" height="24" fill="#2c2c3c"/>
  <rect x="42" y="76" width="236" height="16" fill="#2c2c3c"/>
  <rect x="50" y="68" width="220" height="6" fill="#3a3a50"/>
  <!-- Pediment -->
  <rect x="60" y="52" width="200" height="20" fill="#252535"/>
  <rect x="100" y="38" width="120" height="18" fill="#252535"/>
  <rect x="130" y="28" width="60" height="14" fill="#252535"/>
  <!-- Pediment highlights -->
  <rect x="60" y="52" width="200" height="4" fill="#3a3a50"/>
  <rect x="100" y="38" width="120" height="4" fill="#3a3a50"/>

  <!-- Pillar left -->
  <rect x="38" y="85" width="20" height="280" fill="#333348"/>
  <rect x="40" y="85" width="4" height="280" fill="#3e3e58"/>
  <!-- Pillar right -->
  <rect x="262" y="85" width="20" height="280" fill="#333348"/>
  <rect x="274" y="85" width="4" height="280" fill="#3e3e58"/>

  <!-- Niche rows — 6 rows of 5 niches each -->
  <!-- Row 1 (y=100) -->
  <rect x="58" y="100" width="36" height="28" fill="#1a1a2a" rx="1"/>
  <rect x="58" y="100" width="36" height="4" fill="#3a3a55"/>
  <rect x="102" y="100" width="36" height="28" fill="#1a1a2a" rx="1"/>
  <rect x="102" y="100" width="36" height="4" fill="#3a3a55"/>
  <rect x="146" y="100" width="36" height="28" fill="#1a1a2a" rx="1"/>
  <rect x="146" y="100" width="36" height="4" fill="#3a3a55"/>
  <rect x="190" y="100" width="36" height="28" fill="#1a1a2a" rx="1"/>
  <rect x="190" y="100" width="36" height="4" fill="#3a3a55"/>
  <rect x="234" y="100" width="36" height="28" fill="#1a1a2a" rx="1"/>
  <rect x="234" y="100" width="36" height="4" fill="#3a3a55"/>

  <!-- Row 2 (y=140) -->
  <rect x="58" y="140" width="36" height="28" fill="#1a1a2a"/>
  <rect x="58" y="140" width="36" height="4" fill="#3a3a55"/>
  <rect x="102" y="140" width="36" height="28" fill="#1a1a2a"/>
  <rect x="102" y="140" width="36" height="4" fill="#3a3a55"/>
  <rect x="146" y="140" width="36" height="28" fill="#1a1a2a"/>
  <rect x="146" y="140" width="36" height="4" fill="#3a3a55"/>
  <rect x="190" y="140" width="36" height="28" fill="#1a1a2a"/>
  <rect x="190" y="140" width="36" height="4" fill="#3a3a55"/>
  <rect x="234" y="140" width="36" height="28" fill="#1a1a2a"/>
  <rect x="234" y="140" width="36" height="4" fill="#3a3a55"/>

  <!-- Row 3 (y=180) -->
  <rect x="58" y="180" width="36" height="28" fill="#1a1a2a"/>
  <rect x="58" y="180" width="36" height="4" fill="#3a3a55"/>
  <rect x="102" y="180" width="36" height="28" fill="#1a1a2a"/>
  <rect x="102" y="180" width="36" height="4" fill="#3a3a55"/>
  <rect x="146" y="180" width="36" height="28" fill="#1a1a2a"/>
  <rect x="146" y="180" width="36" height="4" fill="#3a3a55"/>
  <rect x="190" y="180" width="36" height="28" fill="#1a1a2a"/>
  <rect x="190" y="180" width="36" height="4" fill="#3a3a55"/>
  <rect x="234" y="180" width="36" height="28" fill="#1a1a2a"/>
  <rect x="234" y="180" width="36" height="4" fill="#3a3a55"/>

  <!-- Row 4 (y=220) -->
  <rect x="58" y="220" width="36" height="28" fill="#1a1a2a"/>
  <rect x="58" y="220" width="36" height="4" fill="#3a3a55"/>
  <rect x="102" y="220" width="36" height="28" fill="#1a1a2a"/>
  <rect x="102" y="220" width="36" height="4" fill="#3a3a55"/>
  <rect x="146" y="220" width="36" height="28" fill="#1a1a2a"/>
  <rect x="146" y="220" width="36" height="4" fill="#3a3a55"/>
  <rect x="190" y="220" width="36" height="28" fill="#1a1a2a"/>
  <rect x="190" y="220" width="36" height="4" fill="#3a3a55"/>
  <rect x="234" y="220" width="36" height="28" fill="#1a1a2a"/>
  <rect x="234" y="220" width="36" height="4" fill="#3a3a55"/>

  <!-- Row 5 (y=260) -->
  <rect x="58" y="260" width="36" height="28" fill="#1a1a2a"/>
  <rect x="58" y="260" width="36" height="4" fill="#3a3a55"/>
  <rect x="102" y="260" width="36" height="28" fill="#1a1a2a"/>
  <rect x="102" y="260" width="36" height="4" fill="#3a3a55"/>
  <rect x="146" y="260" width="36" height="28" fill="#1a1a2a"/>
  <rect x="146" y="260" width="36" height="4" fill="#3a3a55"/>
  <rect x="190" y="260" width="36" height="28" fill="#1a1a2a"/>
  <rect x="190" y="260" width="36" height="4" fill="#3a3a55"/>
  <rect x="234" y="260" width="36" height="28" fill="#1a1a2a"/>
  <rect x="234" y="260" width="36" height="4" fill="#3a3a55"/>

  <!-- Row 6 (y=300) -->
  <rect x="58" y="300" width="36" height="28" fill="#1a1a2a"/>
  <rect x="58" y="300" width="36" height="4" fill="#3a3a55"/>
  <rect x="102" y="300" width="36" height="28" fill="#1a1a2a"/>
  <rect x="102" y="300" width="36" height="4" fill="#3a3a55"/>
  <rect x="146" y="300" width="36" height="28" fill="#1a1a2a"/>
  <rect x="146" y="300" width="36" height="4" fill="#3a3a55"/>
  <rect x="190" y="300" width="36" height="28" fill="#1a1a2a"/>
  <rect x="190" y="300" width="36" height="4" fill="#3a3a55"/>
  <rect x="234" y="300" width="36" height="28" fill="#1a1a2a"/>
  <rect x="234" y="300" width="36" height="4" fill="#3a3a55"/>

  <!-- Steps at base -->
  <rect x="22" y="362" width="276" height="8" fill="#252535"/>
  <rect x="14" y="368" width="292" height="8" fill="#1e1e30"/>
  <rect x="6" y="375" width="308" height="8" fill="#181828"/>

  <!-- Candle flames (ambient decorations) -->
  <rect x="22" y="348" width="6" height="14" fill="#8b6914"/>
  <rect x="23" y="342" width="4" height="8" fill="#ffaa00" opacity="0.9"/>
  <rect x="24" y="338" width="2" height="6" fill="#ffcc44" opacity="0.7"/>

  <rect x="292" y="348" width="6" height="14" fill="#8b6914"/>
  <rect x="293" y="342" width="4" height="8" fill="#ffaa00" opacity="0.9"/>
  <rect x="294" y="338" width="2" height="6" fill="#ffcc44" opacity="0.7"/>
</svg>
